PathFileType	4	(X/Y/Z)	C:/Users/beibeiliu/ov580/test_trc/User3\sequence.37_training_dense_right.trc
DataRate	CameraRate	NumFrames	NumMarkers	Units	OrigDataRate	OrigDataStartFrame	OrigNumFrames
120	120	20	19	mm	120	63	93
Frame#	Time	ThumbCMC			ThumbMCP			ThumbIP			ThumbTip			IndexMCP			IndexPIP			IndexTip			MiddleMCP			MiddlePIP			MiddleTip			RingMCP			RingPIP			RingTip			PinkyMCP			PinkyPIP			PinkyTip			BackHand1			BackHand2			BackHand3	
		X0	Y0	Z0	X1	Y1	Z1	X2	Y2	Z2	X3	Y3	Z3	X4	Y4	Z4	X5	Y5	Z5	X6	Y6	Z6	X7	Y7	Z7	X8	Y8	Z8	X9	Y9	Z9	X10	Y10	Z10	X11	Y11	Z11	X12	Y12	Z12	X13	Y13	Z13	X14	Y14	Z14	X15	Y15	Z15	X16	Y16	Z16	X17	Y17	Z17	X18	Y18	Z18	
62	0.516667	192.543	40.7451	5.95713	186.95	48.3405	-25.8368	189.421	52.3454	-58.6551	186.943	46.549	-79.8745	232.659	19.0012	-50.6457	222.176	24.9033	-79.2594	195.523	36.364	-93.866	241.294	-5.36355	-55.1905	242.788	1.57087	-82.9216	228.794	5.27777	-116.57	229.455	-23.8549	-44.1655	239.922	-22.1169	-73.7414	233.104	-22.0727	-103.988	209.912	-41.6012	-32.8301	220.186	-46.5062	-56.7908	221.199	-46.0541	-83.1989	211.468	-20.6526	5.60092	197.662	-22.2417	32.699	216.776	10.5758	16.1287	
63	0.525	178.603	46.3491	4.92708	173.277	52.1525	-26.5286	173.668	58.544	-56.1117	175.139	51.5795	-82.2221	225.372	38.9495	-49.5046	212.117	48.5245	-79.8237	185.641	40.317	-92.9056	238.941	17.8885	-50.6759	241.274	24.4606	-78.1436	229.569	25.0789	-115.716	234.514	-4.0422	-42.2758	243.785	-2.58601	-69.7176	239.885	-1.57319	-97.8104	221.63	-26.028	-32.1908	232.354	-26.2148	-52.0844	236.782	-29.8772	-78.8386	218.849	-6.89139	5.26285	200.769	-10.7731	33.4822	209.883	27.0202	17.7327	
64	0.533333	156.06	42.0139	9.74313	149.84	51.3709	-27.2783	145.75	55.2061	-53.4156	152.445	49.3283	-79.7974	200.825	59.8011	-48.8361	184.537	58.2715	-81.5529	163.685	41.7144	-93.0453	221.501	44.9254	-51.7011	223.011	46.9263	-81.3675	211.508	49.1892	-113.539	227.388	19.9201	-44.5663	236.452	22.8941	-75.3063	231.533	24.4105	-98.4756	224.07	-4.47087	-34.7486	235.356	-4.93757	-56.9698	239.877	-8.64135	-80.5574	214.851	8.86483	2.9401	201.871	-0.079092	31.7659	194.198	35.5972	18.3864	
65	0.541667	134.384	33.1212	8.04924	125.416	35.0011	-23.745	118.207	40.2371	-51.6227	121.486	34.8767	-75.7182	168.185	58.6221	-53.15	154.881	49.202	-84.0883	136.731	30.9577	-93.2277	195.951	50.2531	-60.0311	191.28	54.2399	-85.6984	178.904	53.2461	-116.134	204.246	33.1077	-52.0659	208.122	37.6333	-78.2906	203.274	35.9166	-106.896	211.201	7.36983	-41.2125	220.948	7.07196	-65.0024	222.43	7.32349	-85.7093	198.888	17.2262	0.96548	190.195	6.89933	28.7056	176.833	38.6624	13.4996	
66	0.55	114.987	21.8515	9.61726	102.233	19.3591	-19.2893	92.3978	22.9272	-50.5097	95.6455	16.246	-72.4624	137.563	46.75	-59.7084	120.974	39.3059	-83.5009	104.51	9.95102	-90.8629	164.238	44.5348	-61.5053	158.448	47.573	-91.185	146.46	40.6995	-124.007	180.15	30.3483	-59.5857	180.09	33.6019	-86.8957	173.469	30.9525	-110.664	191.024	7.05692	-44.8116	197.139	8.95392	-65.0313	200.706	5.41908	-92.9804	183.32	18.2199	-7.19754	179.034	7.24729	21.966	154.077	33.152	11.9831	
67	0.558333	99.6998	15.0661	13.5185	85.0251	9.8299	-15.2633	75.9441	8.71739	-44.6648	71.2506	2.23953	-65.8347	113.791	37.0313	-59.7733	94.4285	24.4528	-82.0447	83.7297	-4.32264	-86.1492	136.415	38.3531	-67.799	131.707	37.0532	-93.413	118.798	29.0063	-122.372	157.769	21.8559	-58.6139	154.388	26.2554	-86.0223	146.91	20.7289	-113.146	172.79	0.648073	-47.9316	174.485	6.22962	-74.3439	176.351	1.06328	-95.9123	164.181	15.3152	-7.84316	168.783	6.09494	21.5901	136.35	32.2551	8.16375	
68	0.566667	94.0002	16.2084	16.2121	77.3873	10.8216	-8.90688	58.8954	9.95736	-37.1706	56.4005	2.43007	-59.9537	103.173	34.1447	-56.8298	84.4351	22.6224	-80.1046	65.0645	-2.43967	-80.0352	127.372	31.979	-70.76	116.748	30.0839	-94.1389	99.9297	21.9572	-122.14	145.458	15.7898	-62.9449	137.908	19.236	-88.1173	126.649	13.892	-116.7	157.457	-3.79125	-51.2222	157.672	-2.32317	-71.7766	154.054	-6.10579	-100.548	153.909	13.2465	-9.93082	160.532	5.59938	15.608	133.841	28.9033	5.69476	
69	0.575	108.091	28.6113	7.67541	86.8924	28.0894	-13.5166	69.8813	28.7492	-42.9562	62.4284	19.046	-60.1807	112.782	36.0284	-66.2367	90.6706	27.3246	-83.686	66.3081	10.6209	-81.8966	136.608	23.7343	-73.7457	123.801	23.6972	-99.3746	105.236	12.4971	-125.954	148.156	2.62667	-64.68	141.006	4.65034	-90.7198	129.059	-5.51316	-118.135	152.715	-16.1216	-53.7097	154.595	-24.0118	-73.6766	146.773	-28.6364	-97.1231	160.578	1.47242	-16.6788	161.617	0.822568	16.4045	143.301	29.4175	4.04046	
70	0.583333	128.267	34.861	2.06274	107.581	38.2849	-24.6052	90.6788	43.8737	-50.9603	80.7078	32.56	-70.8063	134.554	23.0897	-75.2747	109.491	24.717	-90.4312	77.292	20.4727	-85.6744	152.549	1.44836	-77.7419	140.334	6.79894	-102.877	118.469	-0.264168	-127.528	153.61	-14.2313	-66.1658	149.314	-16.4274	-92.811	133.291	-19.9797	-117.6	151.927	-33.7966	-51.9059	148.622	-43.191	-74.7594	141.599	-46.063	-93.3653	164.096	-15.1609	-18.3824	166.106	-12.8866	10.9528	164.483	18.9001	-5.06041	
71	0.591667	145.801	33.2621	-5.4916	126.773	43.5041	-30.2166	111.605	40.7638	-58.503	97.1063	34.0003	-79.1783	150.351	11.0918	-76.6829	122.764	12.947	-93.5284	97.1158	21.6158	-91.5669	159.737	-12.1873	-81.0163	149.439	-11.7799	-104.797	123.446	-10.302	-131.841	156.318	-30.9299	-66.329	149.497	-38.1996	-90.0404	133.182	-37.5886	-117.97	146.122	-47.3932	-44.8774	144.988	-55.0675	-66.551	134.846	-61.7771	-86.3666	167.609	-27.8126	-13.0171	167.746	-21.0921	17.7896	172.765	7.72529	-3.68693	
72	0.6	155.238	28.7619	-4.13422	137.273	37.3216	-35.6661	122.677	37.2541	-61.7527	107.508	30.1198	-79.8165	157.75	-1.20652	-74.2334	129.326	6.50444	-94.8803	102.3	15.8566	-91.2001	161.782	-25.4546	-77.7598	149.344	-27.3446	-104.423	128.56	-20.9709	-127.867	156.704	-40.295	-61.6467	149.45	-44.8569	-90.5436	131.398	-49.9167	-113.021	144.492	-52.3994	-40.9389	139.766	-64.1517	-65.8902	128.807	-74.5694	-85.6654	167.475	-35.0937	-10.9752	168.017	-30.9205	15.078	179.28	-0.428484	-8.69666	
73	0.608333	153.824	26.0844	-7.05037	135.218	38.2063	-33.1135	120.351	34.6412	-58.8001	107.467	27.8628	-77.7157	157.123	-1.06575	-74.9234	132.202	8.00981	-93.6239	104.637	13.4258	-92.2794	163.085	-25.8748	-76.2865	151.224	-27.681	-100.338	128.881	-24.4632	-126.348	158.194	-41.0836	-60.1628	150.354	-51.3053	-88.3324	133.685	-52.4265	-111.44	145.283	-56.5937	-39.8193	140.153	-70.2177	-61.4978	131.206	-78.1782	-84.843	167.668	-34.0191	-12.635	168.818	-29.011	18.8637	178.284	-0.482509	-4.12365	
74	0.616667	144.523	27.5017	-2.6474	125.655	33.0523	-31.1903	111.476	33.2229	-54.7812	99.2388	22.8737	-74.5611	152.162	4.77224	-72.6615	124.947	8.44296	-92.0281	97.7224	7.02791	-88.9125	161.471	-19.1353	-75.8952	148.792	-23.6944	-102.03	128.822	-23.9706	-124.808	160.362	-37.1213	-59.3322	151.854	-45.7888	-90.5692	139.021	-48.6271	-109.603	149.918	-54.2242	-40.4561	145.939	-66.8006	-64.9926	136.615	-72.2218	-86.3231	168.824	-32.6561	-12.4301	169.243	-25.5958	20.2564	175.275	3.40589	-6.03799	
75	0.625	137.555	30.6718	-0.668062	117.392	36.7863	-25.2563	102.763	36.0464	-50.6868	91.4481	25.3471	-75.3828	145.994	11.8136	-72.3371	120.377	12.0987	-88.8504	91.5762	11.2517	-87.2722	160.896	-8.39038	-72.2165	147.686	-11.9457	-102.617	124.085	-16.6067	-127.463	161.519	-31.0245	-64.2616	156.862	-34.4223	-86.7045	140.07	-41.1994	-110.777	153.816	-48.4035	-40.5214	151.916	-59.9163	-61.4409	142.32	-68.2247	-86.2384	170.221	-26.0729	-11.6756	168.798	-20.9422	19.8281	172.425	12.0837	-3.96815	
76	0.633333	134.679	32.2455	2.67585	114.66	37.1189	-28.0466	100.305	35.4493	-50.8805	88.0048	28.1825	-72.7385	147.372	13.9552	-68.7486	119.84	17.7031	-88.112	87.6449	8.00647	-85.5115	160.115	-3.90431	-73.7545	147.744	-8.76005	-101.625	125.468	-10.1963	-124.112	161.612	-23.3751	-61.0897	156.179	-31.1625	-90.5932	140.981	-36.3233	-111.291	156.023	-42.6824	-42.4738	155.437	-53.5174	-63.5904	146.716	-59.7925	-89.3392	169.262	-18.8482	-7.50109	172.043	-20.3516	17.6705	169.141	14.0778	2.36833	
77	0.641667	131.306	32.8185	3.77235	111.616	33.0423	-21.4779	97.6368	34.518	-47.7793	85.8477	26.0848	-70.0684	142.726	20.8084	-71.5833	118.041	16.6622	-88.0934	90.0749	6.03828	-88.0001	158.57	-2.07301	-73.5113	146.68	-2.15414	-99.3056	125.114	-11.539	-123.722	163.197	-24.0349	-65.0273	156.827	-24.1404	-87.6593	143.308	-30.275	-110.396	159.003	-43.8482	-42.2434	157.872	-51.9061	-66.3945	147.663	-58.2146	-90.519	169.893	-16.9416	-10.5209	171.003	-18.5485	17.568	166.678	13.663	0.74948	
78	0.65	118.996	27.9065	10.6539	98.0963	26.9633	-13.7938	83.2047	26.5513	-45.9515	77.266	14.9098	-65.7293	135.523	22.1243	-63.711	113.017	19.6839	-88.2708	89.5804	1.8753	-94.7641	153.353	6.2255	-67.4074	144.177	0.0781828	-97.1797	124.22	-7.2843	-122.123	161.811	-14.529	-61.9116	158.133	-19.2023	-88.7936	143.88	-25.4844	-111.13	165.163	-34.5268	-45.6762	166.058	-41.6396	-65.2676	158.796	-44.9791	-89.4152	170.693	-7.6985	-8.44599	172.003	-6.54076	21.4942	157.573	19.949	2.53909	
79	0.658333	99.5165	13.5646	15.1404	78.6744	9.19519	-7.31377	64.9863	3.43322	-29.019	57.1524	-3.50038	-53.2012	111.68	24.9374	-61.5486	100.477	16.5234	-88.145	82.4989	1.8385	-102.37	136.303	15.4948	-64.1443	131.196	10.3569	-92.8542	116.955	-2.76532	-124.951	151.881	0.638304	-55.5759	151.172	-1.18899	-86.0242	143.363	-12.7812	-112.065	168.094	-18.779	-43.1399	167.413	-19.1933	-65.1204	167.95	-29.6546	-91.0153	160.47	5.16335	-5.05179	162.487	5.73703	20.8942	135.157	23.5803	8.94571	
80	0.666667	88.9026	2.6881	19.9604	67.0719	-6.88112	-3.5554	51.1005	-14.7621	-23.8646	37.7103	-23.108	-41.8617	99.8217	16.0654	-59.4954	86.7959	10.7521	-84.1722	78.1309	-1.55719	-105.988	125.168	13.3976	-63.7498	123.286	10.0026	-91.9681	113.5	1.06312	-121.666	144.14	5.77561	-53.6405	143.711	4.98079	-80.6116	142.017	-2.60301	-109.04	161.419	-7.62013	-39.9467	169.139	-10.2145	-64.487	171.274	-18.7138	-89.5314	147.656	12.0819	-4.04972	151.946	11.7123	22.7177	119.195	20.7085	10.5946	
81	0.675	84.6967	-2.88564	18.8923	64.5372	-14.9848	-0.578191	46.1114	-23.8384	-20.3424	38.083	-34.1682	-38.4341	91.2886	8.01406	-59.4542	81.9912	2.10767	-84.1641	74.6764	-5.81871	-108.722	123.065	9.84911	-67.1492	120.245	4.84475	-95.3049	113.118	-1.51994	-123.736	142.599	4.5499	-56.2811	141.332	4.51852	-83.1661	146.97	-2.92193	-109.412	161.408	-6.51714	-40.925	170.686	-8.52455	-61.9783	175.487	-12.3288	-84.587	143.536	11.8389	-3.57234	150.11	15.0389	23.0347	116.767	18.4335	7.34269	
